# xmcd
#
# Track frame offsets: 
#        150
#        20240
#        38630
#        54337
#        74142
#        88524
#        103175
#        123540
#        139263
#        151481
#        169447
#        184658
#
# Disc length: 2709 seconds
#
# Revision: 0
# Processed by: cddbd v1.5.2PL0 Copyright (c) Steve Scherf et al.
# Submitted via: ExactAudioCopyFreeDBPlugin 1.0
#
DISCID=b00a930c
DTITLE=พงษ์สิทธิ์ คำภีร์ - สามช่า
DYEAR=1900
DGENRE=Country
TTITLE0=ปลาแดก
TTITLE1=รักบอด
TTITLE2=ทองดี ทองเค
TTITLE3=ม.ให้อะไร
TTITLE4=ลีโอ
TTITLE5=คืนเปลี่ยว
TTITLE6=เกิดอยู่เมืองไทย
TTITLE7=ออนซอน
TTITLE8=เบื่อ
TTITLE9=รากเหง้า
TTITLE10=เคย
TTITLE11=ใจอภัยคน
EXTD=
EXTT0=
EXTT1=
EXTT2=
EXTT3=
EXTT4=
EXTT5=
EXTT6=
EXTT7=
EXTT8=
EXTT9=
EXTT10=
EXTT11=
PLAYORDER=
